<?xml version="1.0" encoding="UTF-8" standalone="no"?>
<!-- Created with Inkscape (http://www.inkscape.org/) -->

<svg
   width="2.3186388mm"
   height="2.4662628mm"
   viewBox="0 0 2.3186388 2.4662628"
   version="1.1"
   id="svg5"
   xml:space="preserve"
   inkscape:version="1.2.2 (732a01da63, 2022-12-09)"
   sodipodi:docname="výkres-1.svg"
   xmlns:inkscape="http://www.inkscape.org/namespaces/inkscape"
   xmlns:sodipodi="http://sodipodi.sourceforge.net/DTD/sodipodi-0.dtd"
   xmlns="http://www.w3.org/2000/svg"
   xmlns:svg="http://www.w3.org/2000/svg"><sodipodi:namedview
     id="namedview7"
     pagecolor="#ffffff"
     bordercolor="#000000"
     borderopacity="0.25"
     inkscape:showpageshadow="2"
     inkscape:pageopacity="0.0"
     inkscape:pagecheckerboard="0"
     inkscape:deskcolor="#ffffff"
     inkscape:document-units="mm"
     showgrid="false"
     showborder="false"
     inkscape:zoom="10.344942"
     inkscape:cx="34.074623"
     inkscape:cy="156.30827"
     inkscape:window-width="1920"
     inkscape:window-height="1009"
     inkscape:window-x="-8"
     inkscape:window-y="-8"
     inkscape:window-maximized="1"
     inkscape:current-layer="layer5" /><defs
     id="defs2" /><g
     inkscape:groupmode="layer"
     id="layer2"
     inkscape:label="Věci"
     inkscape:export-filename="background.svg"
     inkscape:export-xdpi="96"
     inkscape:export-ydpi="96"
     style="display:inline"
     transform="translate(-8.382828,-39.084288)"><path
       style="fill:#000000;stroke-width:0.0273266"
       d="M 9.021574,41.48633 C 8.959894,41.43639 8.959894,41.43639 9.045871,41.375162 9.1564094,41.296452 9.1541404,41.257132 9.032736,41.147534 8.7960184,40.933838 8.7319043,40.754082 8.8197676,40.550439 8.912691,40.335068 8.9062722,40.269588 8.7834373,40.179826 8.3659304,39.874739 8.2769162,39.612623 8.506305,39.363763 c 0.2020895,-0.21924 0.5723917,-0.339564 0.7669153,-0.249198 0.049998,0.02321 0.1521081,0.04577 0.2269104,0.0501 0.1360046,0.0079 0.1360046,0.0079 0.1564441,0.128345 0.011242,0.06627 0.045341,0.14699 0.075776,0.179384 0.059369,0.0632 0.07425,0.190762 0.025749,0.22074 -0.016273,0.01007 -0.052791,0.07242 -0.08115,0.138573 -0.028359,0.06616 -0.1028745,0.16767 -0.1655889,0.225581 -0.1873613,0.173004 0.00883,0.240413 0.28779,0.09888 0.3129701,-0.158779 0.6333611,0.133235 0.3998441,0.364428 -0.2499233,0.247438 -0.07153,0.487556 0.276378,0.371999 0.363651,-0.120784 0.268419,0.225547 -0.141154,0.513336 -0.159862,0.112327 -0.4041745,0.03203 -0.32471,-0.106738 0.0918,-0.160299 -0.030741,-0.192415 -0.2868352,-0.07517 -0.1425643,0.06527 -0.1535982,0.07698 -0.1535982,0.162996 0,0.153312 -0.392822,0.224563 -0.5475015,0.09931 z"
       id="path678" /></g></svg>
