<?xml version="1.0" encoding="UTF-8" standalone="no"?>
<!-- Created with Inkscape (http://www.inkscape.org/) -->

<svg
   width="2.239481mm"
   height="2.5645218mm"
   viewBox="0 0 2.239481 2.5645218"
   version="1.1"
   id="svg5"
   xml:space="preserve"
   inkscape:version="1.2.2 (732a01da63, 2022-12-09)"
   sodipodi:docname="výkres-1.svg"
   xmlns:inkscape="http://www.inkscape.org/namespaces/inkscape"
   xmlns:sodipodi="http://sodipodi.sourceforge.net/DTD/sodipodi-0.dtd"
   xmlns="http://www.w3.org/2000/svg"
   xmlns:svg="http://www.w3.org/2000/svg"><sodipodi:namedview
     id="namedview7"
     pagecolor="#ffffff"
     bordercolor="#000000"
     borderopacity="0.25"
     inkscape:showpageshadow="2"
     inkscape:pageopacity="0.0"
     inkscape:pagecheckerboard="0"
     inkscape:deskcolor="#ffffff"
     inkscape:document-units="mm"
     showgrid="false"
     showborder="false"
     inkscape:zoom="10.344942"
     inkscape:cx="34.074623"
     inkscape:cy="156.30827"
     inkscape:window-width="1920"
     inkscape:window-height="1009"
     inkscape:window-x="-8"
     inkscape:window-y="-8"
     inkscape:window-maximized="1"
     inkscape:current-layer="layer5" /><defs
     id="defs2" /><g
     inkscape:groupmode="layer"
     id="layer2"
     inkscape:label="Věci"
     inkscape:export-filename="background.svg"
     inkscape:export-xdpi="96"
     inkscape:export-ydpi="96"
     style="display:inline"
     transform="translate(-5.6123706,-39.133918)"><path
       style="fill:#000000;stroke-width:0.0273266"
       d="m 6.9046381,41.645455 c -0.040351,-0.04459 -0.043967,-0.06704 -0.019457,-0.12083 0.03315,-0.07276 0.050687,-0.06617 -0.3036684,-0.114025 -0.109807,-0.01482 -0.1585546,-0.04246 -0.2905808,-0.164691 -0.1778322,-0.164642 -0.2190224,-0.174634 -0.3400411,-0.08249 -0.184117,0.140188 -0.2545636,0.112878 -0.2931477,-0.11366 -0.060773,-0.356806 -0.060798,-0.350837 0.00175,-0.413388 0.059297,-0.05929 0.059297,-0.05929 0.1581344,0.0019 0.2154327,0.133148 0.5298683,0.07037 0.5860047,-0.117004 0.038081,-0.127103 0.052982,-0.107387 -0.2344515,-0.310232 -0.2268011,-0.160059 -0.272584,-0.246238 -0.2487987,-0.468342 0.017219,-0.160785 0.01315,-0.185159 -0.040421,-0.242185 -0.079278,-0.08439 -0.060895,-0.154094 0.055052,-0.208745 0.052402,-0.0247 0.1187022,-0.07083 0.1473337,-0.10252 0.062124,-0.06875 0.1522855,-0.07346 0.2673399,-0.01394 0.048097,0.02489 0.116124,0.03731 0.1581371,0.02891 0.5927563,-0.118551 0.9825626,0.567359 0.5742029,1.010378 -0.239824,0.260175 -0.011174,0.38928 0.3521469,0.198833 0.1834661,-0.09617 0.2641663,-0.08198 0.291082,0.0512 0.00827,0.0409 0.039154,0.119835 0.068639,0.175413 0.1084252,0.204387 0.066175,0.307318 -0.1390312,0.338717 -0.2941165,0.045 -0.3653359,0.215113 -0.176268,0.421013 0.172306,0.187646 0.1474424,0.248004 -0.1141364,0.27707 -0.3166275,0.03518 -0.4051542,0.02918 -0.4598214,-0.03123 z"
       id="path573" /></g></svg>
