<?xml version="1.0" encoding="UTF-8" standalone="no"?>
<!-- Created with Inkscape (http://www.inkscape.org/) -->

<svg
   width="3.2343369mm"
   height="2.814888mm"
   viewBox="0 0 3.2343369 2.814888"
   version="1.1"
   id="svg5"
   xml:space="preserve"
   inkscape:version="1.2.2 (732a01da63, 2022-12-09)"
   sodipodi:docname="výkres-1.svg"
   xmlns:inkscape="http://www.inkscape.org/namespaces/inkscape"
   xmlns:sodipodi="http://sodipodi.sourceforge.net/DTD/sodipodi-0.dtd"
   xmlns="http://www.w3.org/2000/svg"
   xmlns:svg="http://www.w3.org/2000/svg"><sodipodi:namedview
     id="namedview7"
     pagecolor="#ffffff"
     bordercolor="#000000"
     borderopacity="0.25"
     inkscape:showpageshadow="2"
     inkscape:pageopacity="0.0"
     inkscape:pagecheckerboard="0"
     inkscape:deskcolor="#ffffff"
     inkscape:document-units="mm"
     showgrid="false"
     showborder="false"
     inkscape:zoom="10.344942"
     inkscape:cx="34.074623"
     inkscape:cy="156.30827"
     inkscape:window-width="1920"
     inkscape:window-height="1009"
     inkscape:window-x="-8"
     inkscape:window-y="-8"
     inkscape:window-maximized="1"
     inkscape:current-layer="layer5" /><defs
     id="defs2" /><g
     inkscape:groupmode="layer"
     id="layer2"
     inkscape:label="Věci"
     inkscape:export-filename="background.svg"
     inkscape:export-xdpi="96"
     inkscape:export-ydpi="96"
     style="display:inline"
     transform="translate(-11.932057,-38.863818)"><path
       style="fill:#000000;stroke-width:0.0273266"
       d="m 13.435781,41.622585 c -0.04509,-0.02758 -0.09886,-0.07056 -0.119484,-0.09554 -0.02755,-0.03336 -0.08216,-0.04542 -0.205701,-0.04542 -0.323228,0 -0.411358,-0.268644 -0.169412,-0.516417 0.235449,-0.241124 0.06768,-0.30247 -0.315383,-0.115325 -0.250603,0.122434 -0.42291,0.146431 -0.499742,0.0696 -0.149676,-0.14968 0.202455,-0.667092 0.45441,-0.667704 0.113774,-2.77e-4 0.267791,-0.05593 0.267791,-0.09678 0,-0.02751 -0.03143,-0.03994 -0.102475,-0.04047 -0.0643,-3.8e-4 -0.159737,-0.03359 -0.256187,-0.08881 -0.390262,-0.223533 -0.461134,-0.291208 -0.461134,-0.440337 0,-0.03454 -0.02459,-0.08505 -0.05465,-0.112258 -0.183138,-0.165735 0.2701,-0.555893 0.698679,-0.601437 0.557797,-0.05927 0.874445,0.22112 0.767267,0.679428 -0.05378,0.229977 -0.05549,0.269468 -0.01345,0.311502 0.08746,0.08746 0.197576,-0.11732 0.227649,-0.423376 0.03207,-0.326403 0.10908,-0.416298 0.277594,-0.324047 0.30755,0.168361 0.357843,0.4383 0.12185,0.654009 -0.193389,0.176766 0.0027,0.332361 0.229507,0.182138 0.197916,-0.131077 0.368908,-0.03861 0.368908,0.199482 0,0.163931 0.03161,0.210414 0.143074,0.210414 0.08014,0 0.116104,0.03077 0.282481,0.241694 0.111577,0.141449 0.116252,0.195652 0.02533,0.293758 -0.08065,0.08702 -0.07832,0.07087 -0.02769,0.19205 0.07535,0.180326 -0.04621,0.255566 -0.265145,0.164117 -0.04936,-0.02063 -0.145074,-0.05443 -0.212707,-0.07515 -0.108565,-0.03325 -0.130973,-0.05446 -0.191286,-0.181032 -0.07514,-0.157692 -0.117637,-0.174201 -0.226993,-0.08818 -0.137948,0.108512 -0.256764,0.140017 -0.454542,0.120529 -0.2688,-0.02648 -0.310263,0.100013 -0.05759,0.175717 0.132686,0.03975 0.192599,0.119276 0.192599,0.255638 0,0.197811 -0.224629,0.283834 -0.423561,0.162206 z"
       id="path676"
       inkscape:export-filename="assets\chickenRunning1.svg"
       inkscape:export-xdpi="96"
       inkscape:export-ydpi="96" /></g></svg>
