<?xml version="1.0" encoding="UTF-8" standalone="no"?>
<!-- Created with Inkscape (http://www.inkscape.org/) -->

<svg
   width="1.8930368mm"
   height="2.371685mm"
   viewBox="0 0 1.8930368 2.371685"
   version="1.1"
   id="svg5"
   xml:space="preserve"
   inkscape:version="1.2.2 (732a01da63, 2022-12-09)"
   sodipodi:docname="výkres-1.svg"
   xmlns:inkscape="http://www.inkscape.org/namespaces/inkscape"
   xmlns:sodipodi="http://sodipodi.sourceforge.net/DTD/sodipodi-0.dtd"
   xmlns="http://www.w3.org/2000/svg"
   xmlns:svg="http://www.w3.org/2000/svg"><sodipodi:namedview
     id="namedview7"
     pagecolor="#ffffff"
     bordercolor="#000000"
     borderopacity="0.25"
     inkscape:showpageshadow="2"
     inkscape:pageopacity="0.0"
     inkscape:pagecheckerboard="0"
     inkscape:deskcolor="#ffffff"
     inkscape:document-units="mm"
     showgrid="false"
     showborder="false"
     inkscape:zoom="10.344942"
     inkscape:cx="34.074623"
     inkscape:cy="156.30827"
     inkscape:window-width="1920"
     inkscape:window-height="1009"
     inkscape:window-x="-8"
     inkscape:window-y="-8"
     inkscape:window-maximized="1"
     inkscape:current-layer="layer5" /><defs
     id="defs2" /><g
     inkscape:groupmode="layer"
     id="layer2"
     inkscape:label="Věci"
     inkscape:export-filename="background.svg"
     inkscape:export-xdpi="96"
     inkscape:export-ydpi="96"
     style="display:inline"
     transform="translate(-2.4445191,-39.04518)"><path
       style="fill:#000000;stroke-width:0.0273266"
       d="M 3.5713735,41.39684 C 3.4310403,41.36291 3.4069419,41.33605 3.4069419,41.213505 c 0,-0.09222 -0.00697,-0.10138 -0.081979,-0.107756 -0.045089,-0.0038 -0.1534242,-0.02105 -0.2407454,-0.03824 -0.1587662,-0.03127 -0.1587662,-0.03127 -0.2732655,0.07893 -0.2276548,0.219099 -0.3374321,0.213069 -0.3114884,-0.0171 0.00765,-0.06784 -0.00308,-0.177688 -0.024126,-0.247013 -0.077418,-0.255053 -0.00926,-0.331874 0.2076743,-0.234053 0.16215,0.07312 0.1989112,0.0449 0.1763843,-0.135397 -0.015745,-0.126024 -0.00939,-0.164117 0.040984,-0.245623 0.095507,-0.154535 0.046871,-0.225303 -0.2244746,-0.326631 -0.1391885,-0.05198 -0.1517255,-0.074 -0.1638689,-0.287933 -0.00652,-0.114888 -9.119e-4,-0.125093 0.110652,-0.200854 0.064637,-0.0439 0.1468561,-0.126286 0.1827088,-0.183084 0.1781784,-0.282249 0.5498363,-0.299316 0.8586962,-0.03943 0.2745646,0.231029 0.2462819,0.611757 -0.056856,0.765368 -0.1375707,0.06971 -0.1854559,0.151818 -0.1285391,0.220402 0.051927,0.06257 0.217307,0.03135 0.3701055,-0.06986 0.1561287,-0.103413 0.1518835,-0.103371 0.2549648,-0.0027 0.046125,0.04509 0.1084197,0.08198 0.1384323,0.08198 0.074851,0 0.095374,0.07032 0.053953,0.18487 -0.029514,0.08162 -0.027706,0.116943 0.012056,0.235664 0.061301,0.183039 0.030255,0.266999 -0.1281933,0.346677 -0.1776935,0.08935 -0.2128813,0.130203 -0.2128813,0.247146 0,0.149303 -0.1627226,0.214217 -0.3957627,0.157879 z"
       id="path680" /></g></svg>
