<?xml version="1.0" encoding="UTF-8" standalone="no"?>
<!-- Created with Inkscape (http://www.inkscape.org/) -->

<svg
   width="6.4153709mm"
   height="2.7500038mm"
   viewBox="0 0 6.4153709 2.7500038"
   version="1.1"
   id="svg5"
   xml:space="preserve"
   inkscape:version="1.2.2 (732a01da63, 2022-12-09)"
   sodipodi:docname="výkres-1.svg"
   xmlns:inkscape="http://www.inkscape.org/namespaces/inkscape"
   xmlns:sodipodi="http://sodipodi.sourceforge.net/DTD/sodipodi-0.dtd"
   xmlns="http://www.w3.org/2000/svg"
   xmlns:svg="http://www.w3.org/2000/svg"><sodipodi:namedview
     id="namedview7"
     pagecolor="#ffffff"
     bordercolor="#000000"
     borderopacity="0.25"
     inkscape:showpageshadow="2"
     inkscape:pageopacity="0.0"
     inkscape:pagecheckerboard="0"
     inkscape:deskcolor="#ffffff"
     inkscape:document-units="mm"
     showgrid="false"
     showborder="false"
     inkscape:zoom="5.9081369"
     inkscape:cx="32.83607"
     inkscape:cy="20.818746"
     inkscape:window-width="1920"
     inkscape:window-height="1009"
     inkscape:window-x="-8"
     inkscape:window-y="-8"
     inkscape:window-maximized="1"
     inkscape:current-layer="layer2" /><defs
     id="defs2" /><g
     inkscape:groupmode="layer"
     id="layer2"
     inkscape:label="Bg"
     inkscape:export-filename="background.svg"
     inkscape:export-xdpi="96"
     inkscape:export-ydpi="96"
     transform="translate(-13.034321,-42.120364)"><path
       style="fill:none;stroke:#010101;stroke-width:0.264583;stroke-linecap:square;stroke-linejoin:round"
       d="m 15.13661,42.431771 c 0,0 0.694134,0.828482 0.918049,-0.179134 0.335871,0.47022 0.649351,0.806093 1.365877,0.29109 -0.403045,0.850876 -0.425437,1.07479 0.111957,1.612183 -0.335871,0.06717 -0.649351,-0.223915 -0.559785,0.582178 -0.492612,-0.335873 -0.537395,-0.716526 -1.365878,-0.246306 -0.223914,-0.201522 -0.06717,-0.582178 -0.649351,-0.291089 0.559786,-0.626959 0.895657,-0.94044 0.179131,-1.768922 z"
       id="path305"
       inkscape:export-filename="crashedEgg.png"
       inkscape:export-xdpi="96"
       inkscape:export-ydpi="96" /><path
       style="fill:none;stroke:#010101;stroke-width:0.264583;stroke-linecap:square;stroke-linejoin:round"
       d="m 18.635601,42.860298 c 0,0 0.712491,0.142499 0.680825,0.680826 -0.03167,0.538326 -0.775824,0.569992 -0.775824,0.569992 0,0 0.474994,-0.284996 -0.0475,-0.538327 0.126665,-0.174164 0.538326,-0.20583 0.07916,-0.490826 0.095,-0.174164 0.06333,-0.221665 0.06333,-0.221665 z"
       id="path361" /><path
       style="fill:none;stroke:#010101;stroke-width:0.264583;stroke-linecap:square;stroke-linejoin:round"
       d="m 13.325755,43.818696 c 0,0 -0.382457,-0.6178 0.03243,-0.962286 0.414884,-0.344484 0.946194,0.17751 0.946194,0.17751 0,0 -0.532565,-0.15237 -0.36082,0.402319 -0.213729,0.02641 -0.517982,-0.252697 -0.412616,0.277354 -0.192105,0.04954 -0.205178,0.10511 -0.205178,0.10511 z"
       id="path363" /></g></svg>
