<?xml version="1.0" encoding="UTF-8" standalone="no"?>
<!-- Created with Inkscape (http://www.inkscape.org/) -->

<svg
   width="16.339722mm"
   height="16.973145mm"
   viewBox="0 0 16.339722 16.973145"
   version="1.1"
   id="svg5"
   xml:space="preserve"
   inkscape:version="1.2.2 (732a01da63, 2022-12-09)"
   sodipodi:docname="výkres-1.svg"
   xmlns:inkscape="http://www.inkscape.org/namespaces/inkscape"
   xmlns:sodipodi="http://sodipodi.sourceforge.net/DTD/sodipodi-0.dtd"
   xmlns="http://www.w3.org/2000/svg"
   xmlns:svg="http://www.w3.org/2000/svg"><sodipodi:namedview
     id="namedview7"
     pagecolor="#ffffff"
     bordercolor="#000000"
     borderopacity="0.25"
     inkscape:showpageshadow="2"
     inkscape:pageopacity="0.0"
     inkscape:pagecheckerboard="0"
     inkscape:deskcolor="#ffffff"
     inkscape:document-units="mm"
     showgrid="false"
     showborder="false"
     inkscape:zoom="2.5862355"
     inkscape:cx="123.15197"
     inkscape:cy="135.7185"
     inkscape:window-width="1920"
     inkscape:window-height="1009"
     inkscape:window-x="-8"
     inkscape:window-y="-8"
     inkscape:window-maximized="1"
     inkscape:current-layer="layer2" /><defs
     id="defs2"><inkscape:path-effect
       effect="powerstroke"
       id="path-effect7119"
       is_visible="true"
       lpeversion="1"
       offset_points="0.19319435,0.26516933 | 0.4899561,0.24850247 | 0.8,0.15000001"
       not_jump="false"
       sort_points="true"
       interpolator_type="CentripetalCatmullRom"
       interpolator_beta="0.2"
       start_linecap_type="zerowidth"
       linejoin_type="round"
       miter_limit="4"
       scale_width="1"
       end_linecap_type="zerowidth" /></defs><g
     inkscape:groupmode="layer"
     id="layer6"
     inkscape:label="Vlci"
     transform="translate(181.99442,181.2783)"><g
       id="g7115"
       transform="matrix(-0.85039597,0,0,0.81147441,-111.8351,-243.34179)"
       inkscape:export-filename="assets\wolf_LeftDown.svg"
       inkscape:export-xdpi="96"
       inkscape:export-ydpi="96"
       style="display:inline"><g
         id="g7061"
         transform="matrix(0.98616496,0,0,1.0001466,1.5102529,-0.3404554)"><path
           style="display:inline;fill:none;stroke:#000000;stroke-width:0.3;stroke-linecap:round;stroke-linejoin:round"
           d="m -74.944598,97.821023 c 0,0 -2.253456,-0.07452 -3.545052,0.194032 -1.291592,0.268549 -1.969359,0.485947 -2.071663,0.831223 -0.102304,0.345278 -0.127881,0.920739 0.115094,1.074198 0.242972,0.153454 0.517913,0.108694 0.517913,0.108694 l -0.01918,-0.453973"
           id="path7043"
           transform="matrix(1.170878,0,0,1.2323626,159.34827,-32.679407)"
           inkscape:label="rukaend" /><path
           style="display:inline;fill:none;stroke:#000000;stroke-width:0.3;stroke-linecap:round;stroke-linejoin:round"
           d="m -79.928999,100.01272 c 0,0 0.51861,0.24024 0.5314,-0.0347 0.01278,-0.274942 -0.01918,-0.594643 -0.01918,-0.594643"
           id="path7045"
           transform="matrix(1.170878,0,0,1.2323626,159.34827,-32.679407)" /><path
           style="display:inline;fill:none;stroke:#000000;stroke-width:0.3;stroke-linecap:round;stroke-linejoin:round"
           d="m -79.397136,99.967593 c 0,0 0.574998,0.464407 0.664514,-0.0088 0.08952,-0.473157 0.05755,-0.709737 0.05755,-0.709737"
           id="path7047"
           transform="matrix(1.170878,0,0,1.2323626,159.34827,-32.679407)" /><path
           style="display:inline;fill:none;stroke:#000000;stroke-width:0.3;stroke-linecap:round;stroke-linejoin:round"
           d="m -78.704179,99.790647 c 0,0 0.393562,0.04031 0.553413,-0.228237 0.159851,-0.26855 0.818941,-1.081284 1.262026,-1.17171 0.443084,-0.09042 1.808503,-0.162764 1.808503,-0.162764 0,0 1.148406,-0.180851 0.135642,-0.406913"
           id="path7049"
           transform="matrix(1.170878,0,0,1.2323626,159.34827,-32.679407)" /><path
           style="display:inline;fill:none;stroke:#000000;stroke-width:0.3;stroke-linecap:round;stroke-linejoin:round"
           d="m -78.049872,99.412304 c 0,0 0.826558,-0.117352 1.450493,-0.153522 0.623933,-0.03617 1.907971,-0.551593 1.907971,-0.551593 0,0 0.678187,-0.08138 0.135636,0.298404 -0.542551,0.379785 -1.410633,0.777656 -1.763291,1.284037 -0.352658,0.50638 -0.85904,1.54627 -1.166485,1.72712 -0.307446,0.18085 -0.940422,0.25319 -1.1484,0.16277 -0.207978,-0.0904 -0.497339,-0.27128 -0.325531,-0.4883 0.171808,-0.21702 0.406914,-0.2984 0.406914,-0.2984"
           id="path7051"
           transform="matrix(1.170878,0,0,1.2323626,159.34827,-32.679407)" /><path
           style="display:inline;fill:none;stroke:#000000;stroke-width:0.3;stroke-linecap:round;stroke-linejoin:round"
           d="m -78.857696,101.5827 c 0,0 -0.969864,-0.42499 -0.327845,-0.73243 0.64202,-0.30745 0.64202,-0.24415 0.64202,-0.24415"
           id="path7053"
           transform="matrix(1.170878,0,0,1.2323626,159.34827,-32.679407)" /><path
           style="display:inline;fill:none;stroke:#000000;stroke-width:0.3;stroke-linecap:round;stroke-linejoin:round"
           d="m -79.125028,100.82149 c 0,0 -0.823545,-0.32805 -0.03091,-0.70471"
           id="path7055"
           transform="matrix(1.170878,0,0,1.2323626,159.34827,-32.679407)" /><path
           style="display:inline;fill:#000000;stroke:none;stroke-width:0.3;stroke-linecap:round;stroke-linejoin:round"
           d="m -80.548476,101.53173 c 0,0 1.401624,0.0464 1.537418,0.27793 0.135793,0.23151 0.881843,0.39419 0.881843,0.39419 0,0 0.355746,0.38929 0.291806,0.86884 -0.06394,0.47955 -0.362448,1.7472 -1.745954,1.73816 -1.383505,-0.009 -2.188289,0.0452 -2.685628,-0.96755 -0.497338,-1.01276 -0.298403,-1.74521 -0.189893,-1.81755 0.108511,-0.0723 0.701147,-0.49975 1.910408,-0.49402"
           id="path7057"
           sodipodi:nodetypes="cscscscc"
           transform="matrix(1.170878,0,0,1.2323626,159.34827,-32.679407)" /><path
           style="display:inline;fill:#000000;fill-rule:nonzero;stroke:none;stroke-width:0.3;stroke-linecap:round;stroke-linejoin:round"
           d="m -80.687422,102.01093 c 0.05054,0.01 0.215388,0.007 0.299789,-0.14447 0.01751,-0.0313 0.032,-0.0692 0.04476,-0.11325 0.04803,-0.16577 0.0734,-0.4251 0.121979,-0.66101 -3.1e-5,1.5e-4 0.0062,-0.0302 0.0062,-0.0301 0.0258,-0.12458 0.05151,-0.24438 0.07831,-0.36418 0.02943,-0.13157 0.04915,-0.2145 0.07195,-0.3125 0.0087,-0.0374 0.01647,-0.0712 0.02279,-0.10052 0.0016,-0.008 0.0032,-0.0152 0.0047,-0.0226 0.0071,-0.0363 0.01207,-0.0696 0.01561,-0.0979 0.0019,-0.0153 0.0032,-0.0268 0.0046,-0.0396 0.0014,-0.0126 0.0029,-0.0245 0.0048,-0.0347 0.0023,-0.0121 0.0055,-0.0225 0.01062,-0.0316 0.0071,-0.0127 0.01679,-0.0205 0.02582,-0.0248 -0.0061,-0.007 -0.01666,-0.0177 -0.03508,-0.0253 -0.01358,-0.006 -0.03052,-0.0092 -0.05089,-0.0089 -0.01766,2.58e-4 -0.03686,0.0034 -0.05712,0.0097 -0.01888,0.006 -0.03821,0.0143 -0.05762,0.025 -0.03814,0.0212 -0.07528,0.0508 -0.108999,0.0857 -0.0069,0.007 -0.01366,0.0145 -0.0202,0.022 -0.0254,0.0291 -0.05075,0.0628 -0.07606,0.10097 -0.05823,0.0878 -0.11411,0.19619 -0.167446,0.31844 -0.05196,0.11909 -0.09953,0.24687 -0.141484,0.3705 -0.0035,0.0102 -0.0069,0.0204 -0.01028,0.0305 -0.0811,0.24292 -0.173026,0.49218 -0.199639,0.66934 -0.007,0.0469 -0.0095,0.0888 -0.0063,0.12566 0.01547,0.17865 0.169342,0.24398 0.219227,0.25347 z"
           id="path7059"
           transform="matrix(1.170878,0,0,1.2323626,159.34827,-32.679407)"
           inkscape:path-effect="#path-effect7119"
           inkscape:original-d="m -80.687422,102.01093 c 0,0 0.389057,-2.044687 0.711941,-1.97714"
           sodipodi:nodetypes="cc" /></g><g
         id="g7113"><path
           style="fill:#000000;stroke:none;stroke-width:0.499999;stroke-linecap:round;stroke-linejoin:round"
           d="m 77.329034,77.424033 c 0,0 -0.379994,-0.854988 -1.456647,-0.791657 0.348329,0.348329 0.728323,0.506661 0.791657,0.85499 -1.329984,-0.379994 -3.103295,-0.443328 -3.356626,0.443328 0.85499,-0.284996 2.343303,-0.284996 2.786631,0.06333 -2.469967,0.316662 -2.406636,1.678311 -2.406636,1.678311 0,0 1.108321,-1.298316 2.438304,-1.108319 -0.949989,0.316664 -1.678313,0.633326 -1.488315,1.804977 0.379994,-0.443328 0.474993,-1.139986 1.646645,-0.696658 1.171654,0.443328 1.994976,1.298318 1.963308,1.709981 -0.03167,0.41166 -0.696655,1.171651 -0.696655,1.171651 l 0.759989,-0.189997 c 0,0 -0.284996,1.42498 -0.633325,1.804977 0.759991,-0.095 0.918321,0.06333 1.298318,0.41166 0.379994,0.348329 0.886656,0.284998 0.886656,0.284998 0,0 -0.949989,-0.474995 -0.918324,-0.759991 0.03167,-0.284996 0.316664,-0.75999 0.348329,-0.728324 0.03167,0.03167 0.633325,-0.126667 0.506661,0.728324 0.253331,-0.379995 0.41166,-1.076653 -0.095,-1.551647 0.25333,-0.379997 0.918321,-0.538326 0.823322,1.076653 0.474993,-0.601659 0.284996,-1.424982 0,-1.86831 0.633325,0.095 1.171652,0 1.171652,0 0,0 -0.823323,0.03167 -0.886656,-0.918321 -0.06333,-0.949989 -0.474993,-0.823325 -0.981654,-0.791657 -0.506661,0.03167 -1.139987,-0.379997 -1.488316,-0.696659 -0.348327,-0.316663 -1.01332,-1.931643 -1.01332,-1.931643 z"
           id="path7063"
           inkscape:export-filename="wolf_leftUp.svg"
           inkscape:export-xdpi="96"
           inkscape:export-ydpi="96" /><path
           style="fill:none;stroke:#000000;stroke-width:0.3;stroke-linecap:round;stroke-linejoin:round;stroke-dasharray:none"
           d="m 77.96236,79.32401 c 0,0 0.759992,-1.899975 2.21664,-2.343303 0.348329,1.456648 0.316661,3.578289 0.316661,3.578289"
           id="path7065" /><path
           style="fill:none;stroke:#000000;stroke-width:0.3;stroke-linecap:round;stroke-linejoin:round;stroke-dasharray:none"
           d="m 78.56402,79.989001 c 0,0 1.139984,-1.994974 1.646645,-2.311638"
           id="path7067" /><path
           style="fill:none;stroke:#000000;stroke-width:0.3;stroke-linecap:round;stroke-linejoin:round;stroke-dasharray:none"
           d="m 77.329035,77.899028 c 0,0 0.759989,-1.01332 1.298316,-1.26665 0.221665,0.538326 0.284996,1.203317 0.284996,1.203317"
           id="path7069" /><path
           style="fill:none;stroke:#000000;stroke-width:0.3;stroke-linecap:round;stroke-linejoin:round;stroke-dasharray:none"
           d="m 74.753806,79.971012 -0.03359,2.048815 H 75.88457 L 75.86219,80.65395 c 0,0 -0.08956,-0.537395 -0.537393,-0.537395 -0.447828,0 -0.579463,0.687575 -0.579463,0.687575"
           id="path7071"
           sodipodi:nodetypes="ccccsc" /><path
           style="fill:none;stroke:#000000;stroke-width:0.3;stroke-linecap:round;stroke-linejoin:round;stroke-dasharray:none"
           d="m 75.808124,82.005352 h 1.321096 l -0.04478,-1.253918 c 0,0 -0.04478,-0.626962 -0.649351,-0.626962 -0.60457,0 -0.559787,0.671742 -0.559787,0.671742"
           id="path7073" /><path
           style="fill:none;stroke:#000000;stroke-width:0.3;stroke-linecap:round;stroke-linejoin:round;stroke-dasharray:none"
           d="m 74.827399,80.954823 c 0,0 0.752075,-0.189997 0.522494,1.01332"
           id="path7075" /><path
           style="fill:none;stroke:#000000;stroke-width:0.3;stroke-linecap:round;stroke-linejoin:round;stroke-dasharray:none"
           d="m 76.014884,80.923157 c 0,0 0.752075,-0.189997 0.522494,1.01332"
           id="path7077" /><path
           style="fill:none;stroke:#000000;stroke-width:0.3;stroke-linecap:round;stroke-linejoin:round;stroke-dasharray:none"
           d="m 74.653044,82.019827 c 0,0 -1.365877,-1.421855 -1.780117,-1.197941 0,0 0.08957,-0.710928 -0.481416,-0.70533 -0.570982,0.0056 -0.358263,0.834081 -0.358263,0.834081 0,0 0.531797,0.727721 0.839679,-0.128751"
           id="path7079" /><path
           style="fill:none;stroke:#000000;stroke-width:0.3;stroke-linecap:round;stroke-linejoin:round;stroke-dasharray:none"
           d="m 72.024935,81.057738 c 0,0 -0.300831,1.472481 -0.01582,1.68623 1.234982,0 4.512442,0.02376 4.512442,0.02376 l -3.293292,1.654564 c 0,0 0,0.728324 0.680825,0.617493 0.680824,-0.110834 1.82081,-1.029155 1.82081,-1.029155 0,0 0.06333,0.300828 0.269163,0.316664 0.205833,0.01582 0.759992,0 0.759992,0 l 0.364162,-0.585828"
           id="path7081" /><path
           style="fill:#000000;stroke:none;stroke-width:0.3;stroke-linecap:round;stroke-linejoin:round;stroke-dasharray:none"
           d="m 76.774875,84.248115 c 0,0 -3.483289,3.926618 -3.32496,6.127425 2.564969,0.253328 3.451624,-0.284999 3.451624,-0.284999 -0.0011,0.0048 1.193496,-4.097796 2.415592,-5.335986 -0.269163,-0.284996 -0.388949,-0.284777 -0.388949,-0.284777 0,0 -2.295806,4.100782 -3.150796,3.435792 -0.854988,-0.664991 -0.0475,-1.789145 -0.0475,-1.789145 l 1.171651,-1.72581 z"
           id="path7083"
           sodipodi:nodetypes="cccccsccc" /><path
           style="fill:none;stroke:#000000;stroke-width:0.3;stroke-linecap:round;stroke-linejoin:round;stroke-dasharray:none"
           d="m 73.488689,90.32705 c 0,0 -2.339903,1.656967 -2.373489,1.70175 -0.03359,0.04478 1.612183,0.235109 1.780116,1.063593 0.738918,-0.403048 1.578597,-0.626962 1.578597,-0.626962 0,0 2.272731,-0.03359 3.235563,0.268698 0.593373,-0.783701 1.298702,-1.645769 1.298702,-1.645769 0,0 -1.836097,-1.108377 -2.216751,-1.041202 -0.380653,0.06717 -3.302738,0.279892 -3.302738,0.279892 z"
           id="path7085" /><path
           style="fill:none;stroke:#000000;stroke-width:0.3;stroke-linecap:round;stroke-linejoin:round;stroke-dasharray:none"
           d="m 77.507954,90.181506 2.563817,-2.149579 c 0,0 0.257503,1.522619 -0.47022,2.048817 -0.72772,0.526198 -1.309896,0.593373 -1.309896,0.593373"
           id="path7087" /><path
           style="fill:none;stroke:#000000;stroke-width:0.3;stroke-linecap:round;stroke-linejoin:round;stroke-dasharray:none"
           d="m 71.171176,92.118365 c 0,0 -0.436631,0.201522 -0.369459,0.873265 0.06718,0.671745 0.313481,0.738918 0.313481,0.738918 0,0 1.533813,0.738917 2.115989,1.085985 0.582179,0.347067 0.918052,0.761309 0.918052,0.761309 0,0 1.030004,0.503806 1.522616,0.134348 -0.839679,-0.862071 -2.754146,-2.384687 -2.754146,-2.384687 l -1.030007,-0.04478"
           id="path7089" /><path
           style="fill:none;stroke:#000000;stroke-width:0.3;stroke-linecap:round;stroke-linejoin:round;stroke-dasharray:none"
           d="m 79.064159,91.222707 c 0,0 1.007612,0.313481 1.321093,0.671743 0.313481,0.358264 0.492612,0.559787 0.246306,1.41066 -0.246306,0.850876 -0.626959,1.276313 -0.537395,1.455444 0.08957,0.179131 -1.343485,1.23153 -1.679358,1.097179 -0.08956,0.02238 -0.223914,0 -0.223914,0 l 1.231529,-2.597406 c 0,0 0.268698,-0.403045 -0.223914,-0.492612 -0.492612,-0.08956 -1.455444,-0.08956 -1.455444,-0.08956"
           id="path7091" /><path
           style="fill:none;stroke:#000000;stroke-width:0.3;stroke-linecap:round;stroke-linejoin:round;stroke-dasharray:none"
           d="m 72.816592,82.791466 c 0,0 -0.126667,0.728326 0.427493,0.728326 0.554162,0 0.474996,-0.664993 0.474996,-0.664993"
           id="path7093" /><path
           style="fill:none;stroke:#000000;stroke-width:0.3;stroke-linecap:round;stroke-linejoin:round;stroke-dasharray:none"
           d="m 74.149237,95.622625 h -2.463056 c 0,0 -0.380656,0.783698 0.694134,0.839679 1.074788,0.05598 2.205556,0.145544 2.205556,0.145544 0,0 0.481415,0.05598 0.54859,-0.682939"
           id="path7095" /><path
           style="fill:none;stroke:#000000;stroke-width:0.3;stroke-linecap:round;stroke-linejoin:round;stroke-dasharray:none"
           d="m 75.660659,95.801756 c 0,0 -0.235109,1.377074 -0.72772,1.433052 -0.492612,0.05598 -3.605022,-0.07837 -3.605022,-0.07837 0,0 -0.873266,-0.223914 -0.660549,-0.895657 0.21272,-0.671745 1.030006,-0.638155 1.030006,-0.638155"
           id="path7097"
           sodipodi:nodetypes="cscsc" /><path
           style="fill:none;stroke:#000000;stroke-width:0.3;stroke-linecap:round;stroke-linejoin:round;stroke-dasharray:none"
           d="m 80.194924,94.816532 c 0,0 1.209138,-0.347067 1.444249,-0.279892 -0.279894,0.347067 -1.175551,1.545008 -2.418275,1.679358 -1.242724,0.134347 -0.492612,-0.358265 -0.492612,-0.358265"
           id="path7099" /><path
           style="fill:none;stroke:#000000;stroke-width:0.3;stroke-linecap:round;stroke-linejoin:round;stroke-dasharray:none"
           d="m 78.179696,95.857733 c 0,0 -0.750112,1.265116 0.347067,1.23153 1.09718,-0.03359 2.653385,-0.313481 3.302736,-1.354682 0.649354,-1.041202 0.828484,-1.466638 -0.257502,-1.186745"
           id="path7101"
           sodipodi:nodetypes="cssc" /><path
           style="fill:#000000;stroke:none;stroke-width:0.3;stroke-linecap:round;stroke-linejoin:round;stroke-dasharray:none"
           d="m 76.299882,92.497179 0.03167,-1.203317 c 0,0 0.981655,0.095 1.076653,0.332493 0.095,0.237498 0.01582,0.94999 0.01582,0.94999 z"
           id="path7103" /><path
           style="fill:#000000;stroke:none;stroke-width:0.3;stroke-linecap:round;stroke-linejoin:round;stroke-dasharray:none"
           d="m 72.45243,91.246361 c 0,0 0.585825,0.649158 0.538327,1.108318 0.522491,-0.189997 1.361649,-0.316661 1.361649,-0.316661 0,0 0.01582,-0.886656 -0.284996,-1.06082 -1.361652,0.348329 -1.61498,0.269163 -1.61498,0.269163 z"
           id="path7105" /><path
           style="fill:#000000;stroke:none;stroke-width:0.3;stroke-linecap:round;stroke-linejoin:round;stroke-dasharray:none"
           d="m 79.388834,88.625301 c 0,0 -0.05598,1.41066 0.167936,1.343485 0.291087,-0.179131 0.492612,-0.705329 0.492612,-0.705329 l 0.07837,-0.918049 -0.07837,-0.201522 z"
           id="path7107" /><path
           style="fill:#000000;stroke:none;stroke-width:0.0148215;stroke-linecap:round;stroke-linejoin:round;stroke-dasharray:none"
           d="m 74.860166,81.623452 c 0,-0.156432 0.0041,-0.34284 0.0091,-0.414241 l 0.0091,-0.129824 h 0.05584 c 0.272355,0 0.405461,0.235589 0.361678,0.640135 -0.0091,0.08428 -0.02009,0.161139 -0.02433,0.170793 -0.0063,0.01417 -0.04681,0.01756 -0.209609,0.01756 h -0.20186 z"
           id="path7109" /><path
           style="fill:#000000;stroke:none;stroke-width:0.0150098;stroke-linecap:round;stroke-linejoin:round;stroke-dasharray:none"
           d="m 75.975845,81.459831 c -0.0056,-0.234062 -0.006,-0.429279 -9.95e-4,-0.433816 0.0051,-0.0045 0.05772,-0.0081 0.11689,-0.0078 0.125884,5.9e-4 0.20289,0.02944 0.262214,0.09861 0.09436,0.110018 0.133656,0.315649 0.106985,0.559763 -0.02551,0.233487 0.0045,0.20885 -0.254153,0.20885 h -0.220879 z"
           id="path7111" /></g></g></g></svg>
