<?xml version="1.0" encoding="UTF-8" standalone="no"?>
<!-- Created with Inkscape (http://www.inkscape.org/) -->

<svg
   width="16.340271mm"
   height="16.972977mm"
   viewBox="0 0 16.340271 16.972977"
   version="1.1"
   id="svg5"
   xml:space="preserve"
   inkscape:version="1.2.2 (732a01da63, 2022-12-09)"
   sodipodi:docname="výkres-1.svg"
   xmlns:inkscape="http://www.inkscape.org/namespaces/inkscape"
   xmlns:sodipodi="http://sodipodi.sourceforge.net/DTD/sodipodi-0.dtd"
   xmlns="http://www.w3.org/2000/svg"
   xmlns:svg="http://www.w3.org/2000/svg"><sodipodi:namedview
     id="namedview7"
     pagecolor="#ffffff"
     bordercolor="#000000"
     borderopacity="0.25"
     inkscape:showpageshadow="2"
     inkscape:pageopacity="0.0"
     inkscape:pagecheckerboard="0"
     inkscape:deskcolor="#ffffff"
     inkscape:document-units="mm"
     showgrid="false"
     showborder="false"
     inkscape:zoom="2.5862355"
     inkscape:cx="123.15197"
     inkscape:cy="135.7185"
     inkscape:window-width="1920"
     inkscape:window-height="1009"
     inkscape:window-x="-8"
     inkscape:window-y="-8"
     inkscape:window-maximized="1"
     inkscape:current-layer="layer2" /><defs
     id="defs2" /><g
     inkscape:groupmode="layer"
     id="layer6"
     inkscape:label="Vlci"
     transform="translate(181.27829,200.00001)"><g
       id="g7041"
       transform="matrix(-0.85724542,0,0,0.81107058,-110.55388,-262.02433)"
       inkscape:export-filename="assets\wolf_LeftUp.svg"
       inkscape:export-xdpi="96"
       inkscape:export-ydpi="96"
       style="display:inline"><g
         id="g7017"><path
           style="fill:#000000;stroke:none;stroke-width:0.499999;stroke-linecap:round;stroke-linejoin:round"
           d="m 77.329034,77.424033 c 0,0 -0.379994,-0.854988 -1.456647,-0.791657 0.348329,0.348329 0.728323,0.506661 0.791657,0.85499 -1.329984,-0.379994 -3.103295,-0.443328 -3.356626,0.443328 0.85499,-0.284996 2.343303,-0.284996 2.786631,0.06333 -2.469967,0.316662 -2.406636,1.678311 -2.406636,1.678311 0,0 1.108321,-1.298316 2.438304,-1.108319 -0.949989,0.316664 -1.678313,0.633326 -1.488315,1.804977 0.379994,-0.443328 0.474993,-1.139986 1.646645,-0.696658 1.171654,0.443328 1.994976,1.298318 1.963308,1.709981 -0.03167,0.41166 -0.696655,1.171651 -0.696655,1.171651 l 0.759989,-0.189997 c 0,0 -0.284996,1.42498 -0.633325,1.804977 0.759991,-0.095 0.918321,0.06333 1.298318,0.41166 0.379994,0.348329 0.886656,0.284998 0.886656,0.284998 0,0 -0.949989,-0.474995 -0.918324,-0.759991 0.03167,-0.284996 0.316664,-0.75999 0.348329,-0.728324 0.03167,0.03167 0.633325,-0.126667 0.506661,0.728324 0.253331,-0.379995 0.41166,-1.076653 -0.095,-1.551647 0.25333,-0.379997 0.918321,-0.538326 0.823322,1.076653 0.474993,-0.601659 0.284996,-1.424982 0,-1.86831 0.633325,0.095 1.171652,0 1.171652,0 0,0 -0.823323,0.03167 -0.886656,-0.918321 -0.06333,-0.949989 -0.474993,-0.823325 -0.981654,-0.791657 -0.506661,0.03167 -1.139987,-0.379997 -1.488316,-0.696659 -0.348327,-0.316663 -1.01332,-1.931643 -1.01332,-1.931643 z"
           id="path6967"
           inkscape:export-filename="wolf_leftUp.svg"
           inkscape:export-xdpi="96"
           inkscape:export-ydpi="96" /><path
           style="fill:none;stroke:#000000;stroke-width:0.3;stroke-linecap:round;stroke-linejoin:round;stroke-dasharray:none"
           d="m 77.96236,79.32401 c 0,0 0.759992,-1.899975 2.21664,-2.343303 0.348329,1.456648 0.316661,3.578289 0.316661,3.578289"
           id="path6969" /><path
           style="fill:none;stroke:#000000;stroke-width:0.3;stroke-linecap:round;stroke-linejoin:round;stroke-dasharray:none"
           d="m 78.56402,79.989001 c 0,0 1.139984,-1.994974 1.646645,-2.311638"
           id="path6971" /><path
           style="fill:none;stroke:#000000;stroke-width:0.3;stroke-linecap:round;stroke-linejoin:round;stroke-dasharray:none"
           d="m 77.329035,77.899028 c 0,0 0.759989,-1.01332 1.298316,-1.26665 0.221665,0.538326 0.284996,1.203317 0.284996,1.203317"
           id="path6973" /><path
           style="fill:none;stroke:#000000;stroke-width:0.3;stroke-linecap:round;stroke-linejoin:round;stroke-dasharray:none"
           d="m 74.753806,79.971012 -0.03359,2.048815 H 75.88457 L 75.86219,80.65395 c 0,0 -0.08956,-0.537395 -0.537393,-0.537395 -0.447828,0 -0.579463,0.687575 -0.579463,0.687575"
           id="path6975"
           sodipodi:nodetypes="ccccsc" /><path
           style="fill:none;stroke:#000000;stroke-width:0.3;stroke-linecap:round;stroke-linejoin:round;stroke-dasharray:none"
           d="m 75.808124,82.005352 h 1.321096 l -0.04478,-1.253918 c 0,0 -0.04478,-0.626962 -0.649351,-0.626962 -0.60457,0 -0.559787,0.671742 -0.559787,0.671742"
           id="path6977" /><path
           style="fill:none;stroke:#000000;stroke-width:0.3;stroke-linecap:round;stroke-linejoin:round;stroke-dasharray:none"
           d="m 74.827399,80.954823 c 0,0 0.752075,-0.189997 0.522494,1.01332"
           id="path6979" /><path
           style="fill:none;stroke:#000000;stroke-width:0.3;stroke-linecap:round;stroke-linejoin:round;stroke-dasharray:none"
           d="m 76.014884,80.923157 c 0,0 0.752075,-0.189997 0.522494,1.01332"
           id="path6981" /><path
           style="fill:none;stroke:#000000;stroke-width:0.3;stroke-linecap:round;stroke-linejoin:round;stroke-dasharray:none"
           d="m 74.653044,82.019827 c 0,0 -1.365877,-1.421855 -1.780117,-1.197941 0,0 0.08957,-0.710928 -0.481416,-0.70533 -0.570982,0.0056 -0.358263,0.834081 -0.358263,0.834081 0,0 0.531797,0.727721 0.839679,-0.128751"
           id="path6983" /><path
           style="fill:none;stroke:#000000;stroke-width:0.3;stroke-linecap:round;stroke-linejoin:round;stroke-dasharray:none"
           d="m 72.024935,81.057738 c 0,0 -0.300831,1.472481 -0.01582,1.68623 1.234982,0 4.512442,0.02376 4.512442,0.02376 l -3.293292,1.654564 c 0,0 0,0.728324 0.680825,0.617493 0.680824,-0.110834 1.82081,-1.029155 1.82081,-1.029155 0,0 0.06333,0.300828 0.269163,0.316664 0.205833,0.01582 0.759992,0 0.759992,0 l 0.364162,-0.585828"
           id="path6985" /><path
           style="fill:#000000;stroke:none;stroke-width:0.3;stroke-linecap:round;stroke-linejoin:round;stroke-dasharray:none"
           d="m 76.774875,84.248115 c 0,0 -3.483289,3.926618 -3.32496,6.127425 2.564969,0.253328 3.451624,-0.284999 3.451624,-0.284999 -0.0011,0.0048 1.193496,-4.097796 2.415592,-5.335986 -0.269163,-0.284996 -0.388949,-0.284777 -0.388949,-0.284777 0,0 -2.295806,4.100782 -3.150796,3.435792 -0.854988,-0.664991 -0.0475,-1.789145 -0.0475,-1.789145 l 1.171651,-1.72581 z"
           id="path6987"
           sodipodi:nodetypes="cccccsccc" /><path
           style="fill:none;stroke:#000000;stroke-width:0.3;stroke-linecap:round;stroke-linejoin:round;stroke-dasharray:none"
           d="m 73.488689,90.32705 c 0,0 -2.339903,1.656967 -2.373489,1.70175 -0.03359,0.04478 1.612183,0.235109 1.780116,1.063593 0.738918,-0.403048 1.578597,-0.626962 1.578597,-0.626962 0,0 2.272731,-0.03359 3.235563,0.268698 0.593373,-0.783701 1.298702,-1.645769 1.298702,-1.645769 0,0 -1.836097,-1.108377 -2.216751,-1.041202 -0.380653,0.06717 -3.302738,0.279892 -3.302738,0.279892 z"
           id="path6989" /><path
           style="fill:none;stroke:#000000;stroke-width:0.3;stroke-linecap:round;stroke-linejoin:round;stroke-dasharray:none"
           d="m 77.507954,90.181506 2.563817,-2.149579 c 0,0 0.257503,1.522619 -0.47022,2.048817 -0.72772,0.526198 -1.309896,0.593373 -1.309896,0.593373"
           id="path6991" /><path
           style="fill:none;stroke:#000000;stroke-width:0.3;stroke-linecap:round;stroke-linejoin:round;stroke-dasharray:none"
           d="m 71.171176,92.118365 c 0,0 -0.436631,0.201522 -0.369459,0.873265 0.06718,0.671745 0.313481,0.738918 0.313481,0.738918 0,0 1.533813,0.738917 2.115989,1.085985 0.582179,0.347067 0.918052,0.761309 0.918052,0.761309 0,0 1.030004,0.503806 1.522616,0.134348 -0.839679,-0.862071 -2.754146,-2.384687 -2.754146,-2.384687 l -1.030007,-0.04478"
           id="path6993" /><path
           style="fill:none;stroke:#000000;stroke-width:0.3;stroke-linecap:round;stroke-linejoin:round;stroke-dasharray:none"
           d="m 79.064159,91.222707 c 0,0 1.007612,0.313481 1.321093,0.671743 0.313481,0.358264 0.492612,0.559787 0.246306,1.41066 -0.246306,0.850876 -0.626959,1.276313 -0.537395,1.455444 0.08957,0.179131 -1.343485,1.23153 -1.679358,1.097179 -0.08956,0.02238 -0.223914,0 -0.223914,0 l 1.231529,-2.597406 c 0,0 0.268698,-0.403045 -0.223914,-0.492612 -0.492612,-0.08956 -1.455444,-0.08956 -1.455444,-0.08956"
           id="path6995" /><path
           style="fill:none;stroke:#000000;stroke-width:0.3;stroke-linecap:round;stroke-linejoin:round;stroke-dasharray:none"
           d="m 72.816592,82.791466 c 0,0 -0.126667,0.728326 0.427493,0.728326 0.554162,0 0.474996,-0.664993 0.474996,-0.664993"
           id="path6997" /><path
           style="fill:none;stroke:#000000;stroke-width:0.3;stroke-linecap:round;stroke-linejoin:round;stroke-dasharray:none"
           d="m 74.149237,95.622625 h -2.463056 c 0,0 -0.380656,0.783698 0.694134,0.839679 1.074788,0.05598 2.205556,0.145544 2.205556,0.145544 0,0 0.481415,0.05598 0.54859,-0.682939"
           id="path6999" /><path
           style="fill:none;stroke:#000000;stroke-width:0.3;stroke-linecap:round;stroke-linejoin:round;stroke-dasharray:none"
           d="m 75.660659,95.801756 c 0,0 -0.235109,1.377074 -0.72772,1.433052 -0.492612,0.05598 -3.605022,-0.07837 -3.605022,-0.07837 0,0 -0.873266,-0.223914 -0.660549,-0.895657 0.21272,-0.671745 1.030006,-0.638155 1.030006,-0.638155"
           id="path7001"
           sodipodi:nodetypes="cscsc" /><path
           style="fill:none;stroke:#000000;stroke-width:0.3;stroke-linecap:round;stroke-linejoin:round;stroke-dasharray:none"
           d="m 80.194924,94.816532 c 0,0 1.209138,-0.347067 1.444249,-0.279892 -0.279894,0.347067 -1.175551,1.545008 -2.418275,1.679358 -1.242724,0.134347 -0.492612,-0.358265 -0.492612,-0.358265"
           id="path7003" /><path
           style="fill:none;stroke:#000000;stroke-width:0.3;stroke-linecap:round;stroke-linejoin:round;stroke-dasharray:none"
           d="m 78.179696,95.857733 c 0,0 -0.750112,1.265116 0.347067,1.23153 1.09718,-0.03359 2.653385,-0.313481 3.302736,-1.354682 0.649354,-1.041202 0.828484,-1.466638 -0.257502,-1.186745"
           id="path7005"
           sodipodi:nodetypes="cssc" /><path
           style="fill:#000000;stroke:none;stroke-width:0.3;stroke-linecap:round;stroke-linejoin:round;stroke-dasharray:none"
           d="m 76.299882,92.497179 0.03167,-1.203317 c 0,0 0.981655,0.095 1.076653,0.332493 0.095,0.237498 0.01582,0.94999 0.01582,0.94999 z"
           id="path7007" /><path
           style="fill:#000000;stroke:none;stroke-width:0.3;stroke-linecap:round;stroke-linejoin:round;stroke-dasharray:none"
           d="m 72.45243,91.246361 c 0,0 0.585825,0.649158 0.538327,1.108318 0.522491,-0.189997 1.361649,-0.316661 1.361649,-0.316661 0,0 0.01582,-0.886656 -0.284996,-1.06082 -1.361652,0.348329 -1.61498,0.269163 -1.61498,0.269163 z"
           id="path7009" /><path
           style="fill:#000000;stroke:none;stroke-width:0.3;stroke-linecap:round;stroke-linejoin:round;stroke-dasharray:none"
           d="m 79.388834,88.625301 c 0,0 -0.05598,1.41066 0.167936,1.343485 0.291087,-0.179131 0.492612,-0.705329 0.492612,-0.705329 l 0.07837,-0.918049 -0.07837,-0.201522 z"
           id="path7011" /><path
           style="fill:#000000;stroke:none;stroke-width:0.0148215;stroke-linecap:round;stroke-linejoin:round;stroke-dasharray:none"
           d="m 74.860166,81.623452 c 0,-0.156432 0.0041,-0.34284 0.0091,-0.414241 l 0.0091,-0.129824 h 0.05584 c 0.272355,0 0.405461,0.235589 0.361678,0.640135 -0.0091,0.08428 -0.02009,0.161139 -0.02433,0.170793 -0.0063,0.01417 -0.04681,0.01756 -0.209609,0.01756 h -0.20186 z"
           id="path7013" /><path
           style="fill:#000000;stroke:none;stroke-width:0.0150098;stroke-linecap:round;stroke-linejoin:round;stroke-dasharray:none"
           d="m 75.975845,81.459831 c -0.0056,-0.234062 -0.006,-0.429279 -9.95e-4,-0.433816 0.0051,-0.0045 0.05772,-0.0081 0.11689,-0.0078 0.125884,5.9e-4 0.20289,0.02944 0.262214,0.09861 0.09436,0.110018 0.133656,0.315649 0.106985,0.559763 -0.02551,0.233487 0.0045,0.20885 -0.254153,0.20885 h -0.220879 z"
           id="path7015" /></g><g
         id="g7039"
         style="display:inline"><path
           style="fill:none;stroke:#000000;stroke-width:0.3;stroke-linecap:round;stroke-linejoin:round;stroke-dasharray:none"
           d="m 66.166678,83.488119 c 0,0 -0.728324,-0.095 -1.092486,-0.981654 -0.364162,-0.886656 0.633325,-0.538327 0.633325,-0.538327 0,0 0.443328,0.348329 1.219153,0.759992 0.775821,0.41166 0.649157,-0.538327 0.649157,-0.538327 0,0 -0.348333,-0.664993 -0.07917,-1.409149 0.269164,-0.744154 0.744157,0.03167 0.744157,0.03167 0,0 0.348329,0.870823 1.076653,2.026642 0.728326,1.155819 1.884145,1.488316 1.884145,1.488316 0,0 0.918322,0.300829 1.551647,0.981654 0.633325,0.680824 -0.384141,0.562219 -0.384141,0.562219 0,0 -2.117494,-1.001047 -3.225814,-1.001047 -1.108319,0 -1.963308,0.330825 -1.963308,0.330825 0,0 -1.044987,0.330824 -1.424983,0 -0.379995,-0.330825 -1.044987,-0.746986 -1.044987,-0.746986 0,0 -0.387911,-0.332496 -0.095,-0.55416 0.292913,-0.221664 0.625408,0.095 0.625408,0.095 0,0 0.372079,0.30083 0.474995,0.324579"
           id="path7019" /><path
           style="fill:none;stroke:#000000;stroke-width:0.3;stroke-linecap:round;stroke-linejoin:round;stroke-dasharray:none"
           d="m 64.852515,83.821118 c 0,0 -0.657561,-1.057624 0.458922,-0.893223"
           id="path7021" /><path
           style="fill:none;stroke:#000000;stroke-width:0.3;stroke-linecap:round;stroke-linejoin:round;stroke-dasharray:none"
           d="m 66.673335,77.392368 c 0,0 -1.361649,0.490826 -0.348329,1.076653 0.569992,-0.0475 0.569992,-0.0475 0.569992,-0.0475"
           id="path7023" /><path
           style="fill:none;stroke:#000000;stroke-width:0.3;stroke-linecap:round;stroke-linejoin:round;stroke-dasharray:none"
           d="m 66.325006,78.469021 c 0,0 -0.427496,0.839155 0.269163,0.965821 0.696658,0.126664 0.815407,-0.102916 0.815407,-0.102916"
           id="path7025"
           sodipodi:nodetypes="csc" /><path
           style="fill:none;stroke:#000000;stroke-width:0.3;stroke-linecap:round;stroke-linejoin:round;stroke-dasharray:none"
           d="m 66.594169,79.43484 c 0,0 -0.221665,1.066358 0.617492,0.873593 0,0 0.791129,0.04323 0.947869,-0.415791"
           id="path7027"
           sodipodi:nodetypes="cc" /><path
           style="fill:none;stroke:#000000;stroke-width:0.3;stroke-linecap:round;stroke-linejoin:round;stroke-dasharray:none"
           d="m 68.161648,79.899382 c 0,0 1.314151,0.730779 2.121641,2.401258 0.80749,1.670476 1.155819,0.01582 0.839157,-0.554159 -0.316663,-0.569995 -0.696658,-3.134961 -1.86831,-3.657455 -1.171651,-0.522494 -1.734145,-0.379997 -1.734145,-0.379997 0,0 -0.218419,-0.680823 -0.846656,-0.316661"
           id="path7029" /><path
           style="fill:none;stroke:#000000;stroke-width:0.3;stroke-linecap:round;stroke-linejoin:round;stroke-dasharray:none"
           d="m 66.894998,78.42152 c 0,0 1.459767,-0.01625 0.490828,0.926239"
           id="path7031"
           sodipodi:nodetypes="cc" /><path
           style="fill:none;stroke:#000000;stroke-width:0.3;stroke-linecap:round;stroke-linejoin:round;stroke-dasharray:none"
           d="m 66.879165,78.389855 c 0,0 0.918321,-0.292913 0.657074,-0.657074"
           id="path7033" /><path
           style="fill:none;stroke:#000000;stroke-width:0.3;stroke-linecap:round;stroke-linejoin:round;stroke-dasharray:none"
           d="m 67.443003,79.388834 c 0,0 0.94044,-0.21272 0.716526,0.492612"
           id="path7035" /><path
           style="fill:#000000;stroke:none;stroke-width:0.3;stroke-linecap:round;stroke-linejoin:round;stroke-dasharray:none"
           d="m 64.453745,84.068644 c 0,0 -1.578594,-1.511422 -0.794895,-2.25034 0.783701,-0.738917 0.962832,-0.850873 0.962832,-0.850873 0,0 -0.850874,-2.664582 0.06717,-3.784153 0.918048,-1.119574 1.88088,-0.582179 1.88088,-0.582179 0,0 0.604568,0.313481 0.716526,0.626962 0.111956,0.313479 -0.232933,0.05348 -0.232933,0.05348 l -0.27708,0.07125 c 0,0 -0.182081,-0.356245 -0.625409,-0.356245 -0.443328,0 -1.250818,0.158332 -1.139986,1.836645 0.110831,1.678313 0.411662,1.804977 0.411662,1.804977 0,0 0.854988,-0.506659 1.187485,-0.506659 0.332496,0 0.166248,0.158329 0.166248,0.158329 l 0.451244,0.03167 0.744157,-0.158332 0.332496,-0.174164 0.728647,0.5306 0.414242,0.537393 0.335873,0.459026 -0.716526,0.873265 c 0,0 -0.660548,-1.354683 -0.694135,-1.399463 -0.03359,-0.04478 -0.459025,-0.537396 -0.459025,-0.537396 l -0.324676,0.179131 -0.246306,0.459026 c 0,0 0.190328,0.985221 0.190328,1.041201 0,0.05598 0,0.503807 -0.01119,0.54859 -0.01119,0.04478 -0.291086,0.179131 -0.291086,0.179131 L 66.043542,82.198968 65.41658,81.930273 c 0,0 -0.291087,0.05598 -0.313479,0.100761 -0.02238,0.04478 -0.08957,0.313478 -0.08957,0.313478 l 0.17913,0.447829 -0.167936,0.06717 c 0,0 -0.324675,0.2575 -0.33587,0.302284 -0.01119,0.04478 0.08956,0.481417 0.08956,0.481417 z"
           id="path7037" /></g></g></g></svg>
